<svg id="Group_116" data-name="Group 116" xmlns="http://www.w3.org/2000/svg" width="721.746" height="673.089" viewBox="0 0 721.746 673.089">
  <g id="Group_109" data-name="Group 109" transform="translate(0 525.309)">
    <path id="Path_238" data-name="Path 238" d="M245.62,1586.985c-5.694-3.7-8.713-7.55-8.713-11.512,0-27.833,148.661-50.4,332.049-50.4S901,1547.64,901,1575.473c0,21.78-91.037,40.33-218.5,47.371-4.64,27.015-115.469,48.633-251.535,48.633-139.016,0-251.708-22.564-251.708-50.4C179.254,1607.93,204.419,1595.96,245.62,1586.985Z" transform="translate(-179.254 -1523.696)" fill="#236c88"/>
    <path id="Path_239" data-name="Path 239" d="M1641.153,1810.426c32.906,0,59.583,5.342,59.583,11.928s-26.677,11.931-59.583,11.931-59.583-5.34-59.583-11.931S1608.244,1810.426,1641.153,1810.426Z" transform="translate(-1007.42 -1692.214)" fill="#236c88"/>
    <path id="Path_240" data-name="Path 240" d="M288.546,1536.55c-20.478,0-37.077-3.323-37.077-7.424s16.6-7.422,37.077-7.422,37.076,3.325,37.076,7.422S309.021,1536.55,288.546,1536.55Z" transform="translate(-221.902 -1521.703)" fill="#236c88"/>
  </g>
  <g id="Group_115" data-name="Group 115" transform="translate(77 0)">
    <g id="Group_114" data-name="Group 114">
      <g id="Group_110" data-name="Group 110">
        <path id="Path_241" data-name="Path 241" d="M935.07,521.349c.665,156.776-125.89,284.41-282.666,285.075S368,680.539,367.332,523.762,493.217,239.354,649.994,238.687,934.4,364.571,935.07,521.349Z" transform="translate(-367.326 -238.681)" fill="#9cd4ed"/>
        <path id="Path_242" data-name="Path 242" d="M1344.512,520.147a283.835,283.835,0,0,0-283.875-281.471Z" transform="translate(-776.773 -238.676)" fill="#c0e3f1"/>
        <path id="Path_243" data-name="Path 243" d="M443.546,459.3C339.3,571.011,342.064,746.106,451.314,854.429S735.676,964.03,846.5,858.84Z" transform="translate(-367.32 -368.971)" fill="#71c3e8"/>
      </g>
      <g id="Group_113" data-name="Group 113" transform="translate(209.796 10.527)">
        <g id="Group_111" data-name="Group 111" transform="translate(83.464)">
          <path id="Path_244" data-name="Path 244" d="M1155.833,292.13l27.808,6.978-27.748,7.211-6.976,27.808-7.21-27.747-27.808-6.975,27.744-7.216,6.978-27.8Z" transform="translate(-1101.488 -264.387)" fill="#fff"/>
          <path id="Path_245" data-name="Path 245" d="M1295.878,411.6l10.967,2.752-10.943,2.842-2.749,10.963-2.845-10.939-10.963-2.751,10.939-2.844,2.754-10.963Z" transform="translate(-1199.195 -344.866)" fill="#fff"/>
          <path id="Path_246" data-name="Path 246" d="M1100.118,398.736l10.96,2.752-10.936,2.842-2.752,10.963-2.84-10.939-10.964-2.751,10.939-2.844,2.749-10.963Z" transform="translate(-1083.586 -337.269)" fill="#fff"/>
        </g>
        <g id="Group_112" data-name="Group 112" transform="translate(0 10.583)">
          <path id="Path_247" data-name="Path 247" d="M907.477,380.306l6.978-27.806,7.213,27.745,27.806,6.978-27.747,7.21-6.973,27.808L907.536,394.5l-27.806-6.978Z" transform="translate(-879.73 -327.007)" fill="#fff"/>
          <path id="Path_248" data-name="Path 248" d="M1026.951,301.2l2.748-10.963,2.845,10.939,10.963,2.751-10.936,2.844-2.756,10.963-2.84-10.939-10.964-2.752Z" transform="translate(-960.214 -290.234)" fill="#fff"/>
          <path id="Path_249" data-name="Path 249" d="M1014.088,496.956l2.749-10.963,2.844,10.939,10.967,2.751-10.938,2.845-2.754,10.96-2.844-10.939-10.963-2.748Z" transform="translate(-952.617 -405.843)" fill="#fff"/>
        </g>
      </g>
    </g>
  </g>
</svg>
