<svg id="Group_822" data-name="Group 822" xmlns="http://www.w3.org/2000/svg" width="80.688" height="81.552" viewBox="0 0 80.688 81.552">
  <g id="Group_821" data-name="Group 821" transform="translate(0)">
    <g id="Group_819" data-name="Group 819" transform="translate(69.45 64.017)">
      <path id="Path_2511" data-name="Path 2511" d="M2964.222,592.655a1.272,1.272,0,0,1-1.271-1.272v-1.106a1.272,1.272,0,1,1,2.543,0v1.106A1.271,1.271,0,0,1,2964.222,592.655Z" transform="translate(-2958.604 -589.005)" fill="#474747"/>
      <path id="Path_2512" data-name="Path 2512" d="M2964.222,637.4a1.271,1.271,0,0,1-1.271-1.272v-1.107a1.272,1.272,0,1,1,2.543,0v1.107A1.271,1.271,0,0,1,2964.222,637.4Z" transform="translate(-2958.604 -626.16)" fill="#474747"/>
      <path id="Path_2513" data-name="Path 2513" d="M2939.694,617.182h-1.106a1.272,1.272,0,0,1,0-2.544h1.106a1.272,1.272,0,1,1,0,2.544Z" transform="translate(-2937.316 -610.292)" fill="#474747"/>
      <path id="Path_2514" data-name="Path 2514" d="M2984.437,617.182h-1.106a1.272,1.272,0,0,1,0-2.544h1.106a1.272,1.272,0,0,1,0,2.544Z" transform="translate(-2974.472 -610.292)" fill="#474747"/>
    </g>
    <g id="Group_820" data-name="Group 820" transform="translate(0.912)">
      <path id="Path_2515" data-name="Path 2515" d="M2560.03,215.128a1.271,1.271,0,0,1-1.272-1.272V212.75a1.272,1.272,0,1,1,2.543,0v1.106A1.272,1.272,0,0,1,2560.03,215.128Z" transform="translate(-2554.411 -211.478)" fill="#474747"/>
      <path id="Path_2516" data-name="Path 2516" d="M2560.03,259.87a1.272,1.272,0,0,1-1.272-1.272v-1.106a1.272,1.272,0,1,1,2.543,0V258.6A1.272,1.272,0,0,1,2560.03,259.87Z" transform="translate(-2554.411 -248.633)" fill="#474747"/>
      <path id="Path_2517" data-name="Path 2517" d="M2535.5,239.655H2534.4a1.272,1.272,0,1,1,0-2.544h1.106a1.272,1.272,0,1,1,0,2.544Z" transform="translate(-2533.124 -232.764)" fill="#474747"/>
      <path id="Path_2518" data-name="Path 2518" d="M2580.244,239.655h-1.107a1.272,1.272,0,0,1,0-2.544h1.107a1.272,1.272,0,0,1,0,2.544Z" transform="translate(-2570.279 -232.764)" fill="#474747"/>
    </g>
    <circle id="Ellipse_37" data-name="Ellipse 37" cx="1.585" cy="1.585" r="1.585" transform="translate(60.839 80.097) rotate(-76.718)" fill="#474747"/>
    <circle id="Ellipse_38" data-name="Ellipse 38" cx="1.585" cy="1.585" r="1.585" transform="translate(0 17.832) rotate(-47.778)" fill="#474747"/>
    <circle id="Ellipse_39" data-name="Ellipse 39" cx="1.585" cy="1.585" r="1.585" transform="matrix(0.865, -0.502, 0.502, 0.865, 75.873, 55.08)" fill="#474747"/>
  </g>
  <path id="Path_2519" data-name="Path 2519" d="M2620.386,322.234a5.778,5.778,0,0,1-2.837-.74l-15.491-8.732-.051-.03a26.347,26.347,0,0,1-12.361-22.328V255.887a1.272,1.272,0,0,1,1-1.242c18.992-4.177,29.2-7.885,29.3-7.922a1.274,1.274,0,0,1,.838-.013c.112.037,11.385,3.759,29.354,7.938a1.272,1.272,0,0,1,.984,1.239V290.4a26.347,26.347,0,0,1-12.361,22.328l-.051.03-15.491,8.732A5.778,5.778,0,0,1,2620.386,322.234Zm-17.053-11.673,15.465,8.718a3.25,3.25,0,0,0,3.175,0l15.465-8.718a23.8,23.8,0,0,0,11.143-20.157V256.9c-15.61-3.665-26.015-6.939-28.178-7.635a265.675,265.675,0,0,1-28.213,7.648v33.5a23.8,23.8,0,0,0,11.143,20.157Zm34.756,1.093h0Z" transform="translate(-2579.15 -240.682)" fill="#474747"/>
  <path id="Path_2520" data-name="Path 2520" d="M2627.249,323.824a1.272,1.272,0,0,1-1.272-1.272V294.895a1.272,1.272,0,0,1,1-1.241,199.356,199.356,0,0,0,23.141-6.337,1.273,1.273,0,0,1,.848-.013c.029.01,2.944.987,8.039,2.433a1.272,1.272,0,1,1-.695,2.447c-4.043-1.148-6.739-2.007-7.731-2.33a204.641,204.641,0,0,1-22.054,6.059v26.639A1.272,1.272,0,0,1,2627.249,323.824Z" transform="translate(-2609.32 -274.391)" fill="#474747"/>
  <path id="Path_2521" data-name="Path 2521" d="M2696.123,477.01a4.8,4.8,0,0,1-2.38-.629l-12.252-7a1.272,1.272,0,0,1,1.261-2.209l12.253,7a2.265,2.265,0,0,0,2.237,0l12.227-6.982a18.775,18.775,0,0,0,8.69-15.937V443.49a1.272,1.272,0,1,1,2.543,0v7.763a21.306,21.306,0,0,1-9.9,18.1l-.051.031-12.253,7A4.8,4.8,0,0,1,2696.123,477.01Z" transform="translate(-2654.887 -403.092)" fill="#474747"/>
  <path id="Path_2522" data-name="Path 2522" d="M2683.568,393.887a1.273,1.273,0,0,1-.9-.373l-8.158-8.158a1.272,1.272,0,0,1,0-1.8l3.67-3.67a1.272,1.272,0,0,1,1.8,0l3.647,3.647,21.287-21.287a1.272,1.272,0,0,1,1.832.035l3.475,3.75a1.272,1.272,0,0,1-.034,1.764l-25.719,25.719A1.272,1.272,0,0,1,2683.568,393.887Zm-6.36-9.43,6.36,6.36,23.955-23.955-1.745-1.883-21.252,21.252a1.272,1.272,0,0,1-1.8,0l-3.646-3.647Z" transform="translate(-2649.314 -336.372)" fill="#474747"/>
</svg>
